# xmcd CD database file
#
# Track frame offsets:
#	225
#	11727
#	28040
#	39192
#	57820
#	71755
#	85170
#	100085
#	112902
#	127077
#
# Disc length: 1830 seconds
#
# Revision: 0
# Processed by: cddbd v1.4PL0 Copyright (c) Steve Scherf et al.
# Submitted via: CDex 1.50Beta7
#
DISCID=7b07230a
DTITLE=Handsome Ned - The ballad of Handsome Ned
DYEAR=1989
DGENRE=Country
TTITLE0=Rockabilly girls
TTITLE1=Wrong side of the tracks
TTITLE2=I've come to get my baby
TTITLE3=In spite of the danger
TTITLE4=Put the blame on me
TTITLE5=Never had it so good
TTITLE6=Sun rockin'
TTITLE7=Drinkin' of you
TTITLE8=Cryin' heartache misery
TTITLE9=Steel rail blue
EXTD=YEAR: 1989
EXTT0=
EXTT1=
EXTT2=
EXTT3=
EXTT4=
EXTT5=
EXTT6=
EXTT7=
EXTT8=
EXTT9=
PLAYORDER=
